Normalized EMG Linear Envelopes
nRows=267
nColumns=4

endheader
time	 med_gas_r	  soleus_r	 tib_ant_r	
4.35758	  0.054547	  0.077850	  0.022808	
4.39085	  0.057490	  0.077690	  0.022626	
4.42411	  0.065856	  0.079920	  0.022597	
4.45738	  0.082171	  0.086125	  0.022738	
4.49064	  0.108967	  0.098724	  0.023256	
4.5239	  0.148053	  0.119884	  0.024568	
4.55717	  0.200114	  0.151045	  0.027150	
4.59043	  0.263179	  0.192117	  0.031474	
4.6237	  0.332245	  0.241117	  0.037972	
4.65696	  0.404362	  0.294738	  0.046838	
4.69022	  0.478677	  0.351698	  0.058020	
4.72349	  0.554055	  0.411444	  0.071040	
4.75675	  0.625044	  0.473755	  0.085306	
4.79002	  0.685080	  0.539004	  0.100330	
4.82328	  0.726219	  0.603012	  0.115233	
4.85654	  0.749551	  0.657388	  0.128745	
4.88981	  0.765088	  0.699150	  0.139975	
4.92307	  0.780335	  0.731475	  0.148745	
4.95634	  0.797104	  0.754325	  0.155480	
4.9896	  0.814244	  0.767243	  0.160582	
5.02286	  0.830321	  0.773530	  0.163810	
5.05613	  0.844034	  0.776347	  0.164839	
5.08939	  0.856063	  0.775952	  0.163504	
5.12266	  0.862805	  0.774463	  0.160128	
5.15592	  0.857237	  0.774895	  0.155571	
5.18918	  0.836991	  0.778106	  0.150328	
5.22245	  0.806570	  0.785263	  0.144451	
5.25571	  0.770228	  0.796774	  0.138419	
5.28898	  0.734860	  0.810345	  0.132900	
5.32224	  0.706113	  0.825511	  0.128636	
5.3555	  0.681971	  0.841267	  0.125607	
5.38877	  0.660237	  0.855296	  0.123654	
5.42203	  0.644207	  0.865487	  0.122725	
5.4553	  0.635711	  0.868271	  0.122575	
5.48856	  0.633376	  0.860856	  0.122689	
5.52182	  0.637568	  0.848025	  0.122637	
5.55509	  0.649868	  0.832339	  0.121986	
5.58835	  0.671091	  0.811810	  0.120053	
5.62162	  0.699023	  0.788544	  0.116813	
5.65488	  0.726575	  0.768574	  0.113561	
5.68814	  0.749663	  0.754219	  0.111260	
5.72141	  0.767650	  0.744311	  0.110423	
5.75467	  0.779782	  0.738655	  0.110840	
5.78794	  0.785067	  0.737750	  0.111912	
5.8212	  0.785746	  0.740339	  0.113310	
5.85446	  0.783409	  0.744728	  0.114595	
5.88773	  0.774856	  0.749262	  0.115241	
5.92099	  0.761303	  0.754997	  0.115148	
5.95426	  0.743540	  0.760463	  0.114230	
5.98752	  0.719835	  0.762817	  0.112423	
6.02078	  0.690792	  0.759084	  0.109650	
6.05405	  0.660983	  0.745684	  0.106287	
6.08731	  0.634254	  0.723450	  0.102834	
6.12058	  0.609641	  0.701855	  0.099902	
6.15384	  0.584728	  0.687283	  0.097458	
6.1871	  0.565088	  0.684891	  0.095794	
6.22037	  0.554136	  0.697773	  0.095353	
6.25363	  0.550669	  0.720824	  0.096197	
6.2869	  0.554966	  0.742908	  0.098145	
6.32016	  0.564595	  0.757603	  0.100270	
6.35342	  0.578957	  0.762375	  0.101294	
6.38669	  0.598968	  0.753408	  0.101168	
6.41995	  0.621619	  0.731763	  0.100177	
6.45322	  0.641565	  0.705564	  0.098501	
6.48648	  0.658017	  0.681791	  0.096646	
6.51974	  0.674330	  0.663723	  0.095227	
6.55301	  0.690931	  0.653346	  0.094456	
6.58627	  0.703846	  0.650721	  0.094292	
6.61954	  0.710462	  0.653372	  0.094660	
6.6528	  0.714955	  0.660264	  0.095403	
6.68606	  0.717612	  0.671323	  0.096639	
6.71933	  0.719838	  0.688611	  0.098413	
6.75259	  0.725268	  0.711193	  0.100685	
6.78586	  0.736147	  0.734557	  0.102945	
6.81912	  0.748464	  0.757247	  0.104485	
6.85238	  0.757842	  0.776368	  0.105119	
6.88565	  0.763557	  0.789570	  0.104795	
6.91891	  0.766470	  0.799516	  0.104063	
6.95218	  0.767076	  0.808170	  0.103408	
6.98544	  0.764677	  0.815570	  0.102691	
7.0187	  0.756890	  0.823111	  0.101995	
7.05197	  0.747759	  0.827934	  0.101598	
7.08523	  0.742090	  0.824449	  0.101277	
7.1185	  0.737983	  0.814777	  0.100665	
7.15176	  0.730392	  0.800380	  0.099666	
7.18502	  0.721430	  0.782180	  0.098921	
7.21829	  0.712582	  0.763938	  0.098940	
7.25155	  0.702126	  0.746306	  0.099729	
7.28482	  0.689397	  0.729995	  0.100912	
7.31808	  0.674420	  0.718399	  0.102077	
7.35134	  0.656110	  0.715114	  0.102948	
7.38461	  0.637408	  0.720593	  0.103686	
7.41787	  0.625808	  0.728641	  0.104180	
7.45114	  0.624537	  0.732777	  0.104012	
7.4844	  0.632258	  0.735843	  0.103399	
7.51766	  0.642349	  0.740326	  0.102811	
7.55093	  0.651955	  0.745206	  0.102642	
7.58419	  0.661626	  0.746357	  0.102882	
7.61746	  0.669549	  0.744929	  0.103030	
7.65072	  0.673250	  0.745675	  0.102896	
7.68398	  0.672662	  0.748696	  0.102451	
7.71725	  0.669025	  0.748431	  0.101455	
7.75051	  0.666013	  0.745411	  0.100212	
7.78378	  0.666189	  0.743792	  0.099029	
7.81704	  0.671346	  0.742779	  0.097922	
7.8503	  0.682882	  0.738891	  0.096583	
7.88357	  0.698978	  0.731862	  0.094622	
7.91683	  0.714953	  0.720638	  0.092383	
7.9501	  0.730279	  0.703729	  0.090134	
7.98336	  0.741409	  0.684687	  0.087852	
8.01662	  0.742840	  0.669022	  0.085655	
8.04989	  0.732967	  0.659260	  0.084090	
8.08315	  0.711851	  0.656384	  0.083439	
8.11642	  0.689154	  0.661249	  0.083440	
8.14968	  0.671679	  0.671689	  0.083624	
8.18294	  0.661719	  0.682503	  0.083549	
8.21621	  0.660010	  0.690932	  0.082918	
8.24947	  0.667693	  0.694114	  0.082152	
8.28274	  0.681804	  0.688404	  0.081986	
8.316	  0.691847	  0.673124	  0.082731	
8.34926	  0.695303	  0.653846	  0.084388	
8.38253	  0.694097	  0.638504	  0.086854	
8.41579	  0.686239	  0.630175	  0.089753	
8.44906	  0.667580	  0.625019	  0.092261	
8.48232	  0.641431	  0.617580	  0.093774	
8.51558	  0.615140	  0.607455	  0.093890	
8.54885	  0.594817	  0.597904	  0.092519	
8.58211	  0.582191	  0.591048	  0.089755	
8.61538	  0.575918	  0.589018	  0.085827	
8.64864	  0.578050	  0.593159	  0.081200	
8.6819	  0.586722	  0.600875	  0.076734	
8.71517	  0.596374	  0.604663	  0.073191	
8.74843	  0.604753	  0.604992	  0.070947	
8.7817	  0.612084	  0.606029	  0.070114	
8.81496	  0.621916	  0.607623	  0.070829	
8.84822	  0.633347	  0.607495	  0.072760	
8.88149	  0.641331	  0.605597	  0.075125	
8.91475	  0.646435	  0.604290	  0.077349	
8.94802	  0.650840	  0.603692	  0.079285	
8.98128	  0.652816	  0.602503	  0.080859	
9.01454	  0.654322	  0.599292	  0.082093	
9.04781	  0.657445	  0.591873	  0.083021	
9.08107	  0.658847	  0.582585	  0.083696	
9.11434	  0.653595	  0.573389	  0.084226	
9.1476	  0.641001	  0.564743	  0.084647	
9.18086	  0.620506	  0.557870	  0.085085	
9.21413	  0.592602	  0.551943	  0.085192	
9.24739	  0.564261	  0.546639	  0.084438	
9.28066	  0.540496	  0.543807	  0.083034	
9.31392	  0.519589	  0.545242	  0.081473	
9.34718	  0.499329	  0.551209	  0.080070	
9.38045	  0.485113	  0.561845	  0.079069	
9.41371	  0.482234	  0.574769	  0.078486	
9.44698	  0.489375	  0.585932	  0.077844	
9.48024	  0.500089	  0.593572	  0.076950	
9.5135	  0.513357	  0.599392	  0.075978	
9.54677	  0.526162	  0.604061	  0.075053	
9.58003	  0.533476	  0.604228	  0.074097	
9.6133	  0.529368	  0.597289	  0.072751	
9.64656	  0.512874	  0.586814	  0.071060	
9.67982	  0.490673	  0.574084	  0.069167	
9.71309	  0.471308	  0.556689	  0.067366	
9.74635	  0.457176	  0.534336	  0.065919	
9.77962	  0.447839	  0.509770	  0.064953	
9.81288	  0.444318	  0.486546	  0.064566	
9.84614	  0.445819	  0.469712	  0.064664	
9.87941	  0.452632	  0.461478	  0.064818	
9.91267	  0.465680	  0.460856	  0.064688	
9.94594	  0.483680	  0.463696	  0.064414	
9.9792	  0.501834	  0.467488	  0.064293	
10.0125	  0.514745	  0.471612	  0.064399	
10.0457	  0.519160	  0.477569	  0.064667	
10.079	  0.517944	  0.484820	  0.064759	
10.1123	  0.514453	  0.489438	  0.064428	
10.1455	  0.509035	  0.491376	  0.063712	
10.1788	  0.501872	  0.494124	  0.062796	
10.212	  0.491663	  0.498828	  0.062083	
10.2453	  0.480592	  0.505533	  0.062042	
10.2786	  0.474184	  0.516676	  0.062853	
10.3118	  0.472849	  0.532333	  0.064386	
10.3451	  0.474669	  0.550718	  0.066192	
10.3784	  0.477792	  0.569684	  0.067937	
10.4116	  0.480119	  0.587444	  0.069554	
10.4449	  0.480809	  0.603376	  0.071038	
10.4782	  0.479845	  0.614606	  0.072342	
10.5114	  0.478820	  0.618604	  0.073212	
10.5447	  0.480755	  0.614240	  0.073092	
10.578	  0.486332	  0.604149	  0.071935	
10.6112	  0.494537	  0.589070	  0.070225	
10.6445	  0.503419	  0.568007	  0.068388	
10.6777	  0.510744	  0.540753	  0.066675	
10.711	  0.515268	  0.511839	  0.064998	
10.7443	  0.514675	  0.486378	  0.063357	
10.7775	  0.505998	  0.465313	  0.061977	
10.8108	  0.489127	  0.444859	  0.060706	
10.8441	  0.467753	  0.421504	  0.059241	
10.8773	  0.445174	  0.396169	  0.057634	
10.9106	  0.422685	  0.371712	  0.056110	
10.9439	  0.403117	  0.350986	  0.054761	
10.9771	  0.388073	  0.336388	  0.053511	
11.0104	  0.376253	  0.327886	  0.052311	
11.0436	  0.369317	  0.321513	  0.051199	
11.0769	  0.369799	  0.310663	  0.050356	
11.1102	  0.377195	  0.293817	  0.050095	
11.1434	  0.387136	  0.275069	  0.050612	
11.1767	  0.392353	  0.257808	  0.051746	
11.21	  0.384114	  0.243666	  0.053165	
11.2432	  0.364692	  0.233062	  0.054755	
11.2765	  0.342424	  0.224717	  0.056496	
11.3098	  0.324137	  0.217089	  0.058234	
11.343	  0.313362	  0.210953	  0.059645	
11.3763	  0.308970	  0.207202	  0.060471	
11.4096	  0.305746	  0.204923	  0.060552	
11.4428	  0.299535	  0.201576	  0.060031	
11.4761	  0.292021	  0.194951	  0.059637	
11.5093	  0.286644	  0.184701	  0.059877	
11.5426	  0.284776	  0.172646	  0.060573	
11.5759	  0.285557	  0.161292	  0.061497	
11.6091	  0.286743	  0.152142	  0.062563	
11.6424	  0.284651	  0.145630	  0.063838	
11.6757	  0.276209	  0.141154	  0.065057	
11.7089	  0.261587	  0.136892	  0.065691	
11.7422	  0.245256	  0.131995	  0.065112	
11.7755	  0.232817	  0.126299	  0.063044	
11.8087	  0.226301	  0.120150	  0.059810	
11.842	  0.224159	  0.113801	  0.056264	
11.8752	  0.223779	  0.107770	  0.052920	
11.9085	  0.224118	  0.102727	  0.049941	
11.9418	  0.224409	  0.098831	  0.047237	
11.975	  0.223228	  0.096091	  0.045034	
12.0083	  0.222039	  0.094806	  0.043992	
12.0416	  0.222193	  0.095100	  0.044187	
12.0748	  0.223417	  0.096589	  0.045130	
12.1081	  0.226179	  0.098601	  0.046161	
12.1414	  0.230412	  0.100509	  0.046537	
12.1746	  0.233669	  0.101870	  0.046220	
12.2079	  0.234812	  0.102364	  0.045761	
12.2412	  0.235439	  0.102027	  0.045543	
12.2744	  0.236675	  0.101450	  0.045693	
12.3077	  0.237414	  0.101063	  0.046073	
12.3409	  0.237691	  0.100897	  0.046261	
12.3742	  0.238228	  0.101057	  0.045972	
12.4075	  0.239290	  0.101572	  0.045269	
12.4407	  0.240027	  0.102003	  0.044399	
12.474	  0.238481	  0.102219	  0.043573	
12.5073	  0.234253	  0.102199	  0.042850	
12.5405	  0.230621	  0.101732	  0.042058	
12.5738	  0.231502	  0.100768	  0.041289	
12.6071	  0.238006	  0.099388	  0.040910	
12.6403	  0.247947	  0.097646	  0.040913	
12.6736	  0.256920	  0.095450	  0.041024	
12.7068	  0.260744	  0.092948	  0.040657	
12.7401	  0.259240	  0.090519	  0.039494	
12.7734	  0.256929	  0.088615	  0.038045	
12.8066	  0.256819	  0.087558	  0.037016	
12.8399	  0.258573	  0.087426	  0.036821	
12.8732	  0.260529	  0.087809	  0.037448	
12.9064	  0.262069	  0.088174	  0.038422	
12.9397	  0.262730	  0.088523	  0.039119	
12.973	  0.263133	  0.089284	  0.039407	
13.0062	  0.263759	  0.090773	  0.039616	
13.0395	  0.263135	  0.092843	  0.039904	
13.0728	  0.257909	  0.095060	  0.040299	
13.106	  0.246008	  0.096928	  0.040675	
13.1393	  0.229741	  0.097766	  0.040869	
13.1725	  0.214499	  0.097401	  0.040916	
13.2058	  0.204020	  0.096537	  0.041128	
